<svg xmlns="http://www.w3.org/2000/svg" xmlns:xlink="http://www.w3.org/1999/xlink" viewBox="0 0 56 70" version="1.1" x="0px" y="0px"><title>012 - Machine Learning</title><desc>Created with Sketch.</desc><g stroke="none" stroke-width="1" fill="none" fill-rule="evenodd"><g fill="#ba532e" fill-rule="nonzero"><path d="M21.53662,8.44043 C21.5131208,8.73335797 21.3618453,9.00108302 21.12305,9.17236 L19.96942,10 L22.2348,10 L24.65527,8.23926 L20.4339,4.01788 C20.0899557,4.60149565 19.6035172,5.08827141 19.02014,5.43262 L21.24609,7.65186 C21.45419,7.85919951 21.5604584,8.14763828 21.53662,8.44043 Z"/><rect x="11" y="16" width="4" height="4" rx="1"/><rect x="11" y="30" width="8" height="2"/><path d="M7,32 L9,32 L9,27 C9.00180771,25.3438951 10.3438951,24.0018077 12,24 L19,24 L19,17 C19.0000041,16.6630666 19.1696688,16.348784 19.4513574,16.1639173 C19.7330459,15.9790506 20.0888879,15.9484535 20.398,16.08252 L21.34356,16.49261 L24.3999,14.2002 C24.6869449,13.9846524 25.0675153,13.9395382 25.397,14.082 L35.5972,18.49216 C36.1104315,18.717858 36.5840673,19.0245496 37,19.40051 L37,14 C36.9988975,12.8958875 36.1041125,12.0011025 35,12 L7,12 C5.89588748,12.0011025 5.00110246,12.8958875 5,14 L5,30 C5.00110246,31.1041125 5.89588748,31.9988975 7,32 Z M9,17 C9.00180771,15.3438951 10.3438951,14.0018077 12,14 L14,14 C15.6561049,14.0018077 16.9981923,15.3438951 17,17 L17,19 C16.9981923,20.6561049 15.6561049,21.9981923 14,22 L12,22 C10.3438951,21.9981923 9.00180771,20.6561049 9,19 L9,17 Z"/><path d="M16,38 C15.4477153,38 15,38.4477153 15,39 C15,39.5522847 15.4477153,40 16,40 L19,40 L19,34 L16,34 C15.4477153,34 15,34.4477153 15,35 C15,35.5522847 15.4477153,36 16,36 C16.5522847,36 17,36.4477153 17,37 C17,37.5522847 16.5522847,38 16,38 Z"/><path d="M42,24.11755 L42,45.55334 L49.62469,42.23993 L46.188,37.08447 C45.3203665,35.7796889 45.6724512,34.0188316 46.9751,33.148 C48.253673,32.3447196 49.9336298,32.6473186 50.85156,33.84624 L55,39.55 L55,18.52344 L42.37793,23.99756 C42.25665,24.05023 42.12518,24.07422 42,24.11755 Z"/><path d="M55.03589,43 L49.231,35.01807 C48.9626081,34.6631437 48.467569,34.5720027 48.09037,34.80807 C47.7043815,35.0659228 47.5980808,35.5865414 47.85209,35.97507 L52.53516,43 L55.03589,43 Z"/><polygon points="44.499 48 47.52 48 50.762 43.946 50.752 43.93 43.73 46.98"/><rect x="36" y="24.43018" width="4" height="21.56982"/><path d="M41.58154,22.1626 L52.54468,17.40839 L50.86426,16.148 L41.19678,20.32818 C40.3010419,20.7402632 39.6115812,21.4991382 39.28705,22.43018 L40.31005,22.43018 C40.7476798,22.4285068 41.180355,22.337452 41.58154,22.1626 Z"/><path d="M19,26 L12,26 C11.4480122,26.0007162 11.0007162,26.4480122 11,27 L11,28 L19,28 L19,26 Z"/><circle cx="17" cy="2" r="2"/><path d="M0,50 L0,56 L3,56 L3,46.142 C1.23854886,46.5954269 0.00549565026,48.1811333 8.8817842e-16,50 Z"/><path d="M41.12323,47.915 C41.082756,47.9260544 41.0415873,47.9343864 41,47.93994 C40.98608,47.93994 40.97461,47.93256 40.96082,47.93201 C40.7455756,47.9685569 40.52821,47.9912701 40.31006,48.00001 L39.86847,48.00001 L41.8761,51.01142 L42.82849,49.1067 L41.80627,47.74928 C41.5825904,47.8198699 41.3543887,47.8752365 41.12323,47.915 Z"/><path d="M35.03992,47.93188 C35.02592,47.9325 35.01416,47.93994 35,47.93994 L35,56 L37,56 L37,48 L35.68994,48 C35.4720357,47.9911789 35.2549189,47.9684257 35.03992,47.93188 Z"/><polygon points="52.48 45 49.265 49.02 50.952 51.269 55.131 45"/><path d="M36.713,22.43018 C36.388749,21.4993936 35.6996341,20.740665 34.80425,20.32861 L25.13574,16.148 L23.45532,17.40844 L34.418,22.1626 C34.819378,22.3374091 35.2522106,22.4284605 35.69,22.43018 L36.713,22.43018 Z"/><polygon points="44.618 50 43.618 52 49 52 47.5 50"/><rect x="44" y="54" width="5" height="2"/><path d="M25.39624,44 L20.78479,42 L7,42 C5.89588748,42.0011025 5.00110246,42.8958875 5,44 L5,56 L7,56 L7,47 C7.00180771,45.3438951 8.34389511,44.0018077 10,44 L25.39624,44 Z"/><path d="M0,23 C0.00549565026,24.8188667 1.23854886,26.4045731 3,26.858 L3,19.142 C1.23854886,19.5954269 0.00549565026,21.1811333 0,23 Z"/><path d="M10,46 C9.44801218,46.0007162 9.00071619,46.4480122 9,47 L9,56 L33,56 L33,47.29779 L30.00763,46 L10,46 Z"/><path d="M21,18.52344 L21,39.91406 L21.37872,40.07849 L21.38019,40.0791 L30.57965,44.07257 C30.59998,44.08044 30.61865,44.08887 30.63824,44.09802 L34,45.55737 L34,24.11768 C33.87463,24.07434 33.743,24.05029 33.62158,23.99756 L21,18.52344 Z"/></g></g></svg>
